<svg width="43" height="44" viewBox="0 0 43 44" fill="none" xmlns="http://www.w3.org/2000/svg">
<g clip-path="url(#clip0_2775_1624)">
<path fill-rule="evenodd" clip-rule="evenodd" d="M0.571061 25.8715C-0.115699 26.5525 -0.120348 27.6614 0.560678 28.3481L14.4948 42.3995C15.1758 43.0862 16.2846 43.0908 16.9714 42.4099L28.0506 31.4233L11.6502 14.8848L0.571061 25.8715ZM41.5925 17.9943L30.5375 28.9571L14.1372 12.4186L25.1922 1.45589C25.8789 0.774867 26.9878 0.779515 27.6688 1.46627L41.6029 15.5177C42.284 16.2045 42.2794 17.3133 41.5925 17.9943ZM15.8649 29.8376C15.8588 31.2885 14.6778 32.4595 13.227 32.4534C11.7762 32.4474 10.6051 31.2665 10.6112 29.8156C10.6172 28.3649 11.7983 27.1937 13.249 27.1997C14.6998 27.2058 15.8709 28.3869 15.8649 29.8376ZM23.8042 15.8609C25.2549 15.8669 26.436 14.6958 26.4421 13.245C26.4481 11.7942 25.2769 10.6132 23.8262 10.6072C22.3755 10.6011 21.1944 11.7722 21.1884 13.223C21.1823 14.6737 22.3535 15.8548 23.8042 15.8609ZM35.1909 15.033C35.1848 16.4837 34.0037 17.6549 32.553 17.6488C31.1023 17.6427 29.9311 16.4617 29.9372 15.0109C29.9433 13.5602 31.1243 12.389 32.5751 12.3951C34.0258 12.4012 35.197 13.5822 35.1909 15.033Z" fill="white"/>
</g>
<defs>
<clipPath id="clip0_2775_1624">
<rect width="42.03" height="42.03" fill="white" transform="translate(0.15332 0.828644) rotate(0.240213)"/>
</clipPath>
</defs>
</svg>
