<svg width="44" height="44" viewBox="0 0 44 44" fill="none" xmlns="http://www.w3.org/2000/svg">
<path fill-rule="evenodd" clip-rule="evenodd" d="M14.492 6.65237L13.56 6L12.6281 6.65237L3.69317 12.9068L3 13.392V27.5932L3.69317 28.0784L21.563 40.5874L22.495 41.2397L23.427 40.5874L41.2969 28.0784L41.99 27.5932V13.392L41.2969 12.9068L32.3619 6.65237L31.4299 6L30.498 6.65237L22.495 12.2545L14.492 6.65237ZM30.6206 24.838H27.3703V21.5877H30.6206V24.838ZM32.2457 16.7124V19.9626H35.4959V16.7124H32.2457ZM12.7443 19.9626V16.7124H15.9945V19.9626H19.2448V23.2129H15.9945V26.4631H12.7443V23.2129H9.4941V19.9626H12.7443Z" fill="white"/>
</svg>
