<svg width="37" height="37" viewBox="0 0 37 37" fill="none" xmlns="http://www.w3.org/2000/svg">
<g clip-path="url(#clip0_3015_689)">
<path d="M28.6446 0.169587C28.4314 0.0846515 28.1979 0.0642109 27.9731 0.110803C27.7484 0.157395 27.5423 0.268969 27.3804 0.431671L25.3917 2.42042C23.3178 0.853473 20.7753 0.0331469 18.1767 0.0925039C16.0548 0.0020783 13.952 0.527427 12.122 1.6052C10.292 2.68297 8.81283 4.26714 7.86291 6.16667C7.79925 6.3071 7.76432 6.45885 7.76018 6.61298C7.75604 6.76711 7.78277 6.92051 7.83879 7.06416C7.89481 7.2078 7.979 7.33879 8.0864 7.44942C8.19379 7.56005 8.32223 7.64808 8.46416 7.70834C8.60765 7.78029 8.76614 7.81727 8.92666 7.81626C9.15232 7.81704 9.37329 7.75178 9.56231 7.6285C9.75133 7.50523 9.90014 7.32933 9.99041 7.12251C10.7617 5.63736 11.943 4.40482 13.3942 3.5713C14.8453 2.73779 16.5052 2.33835 18.1767 2.42042C20.1607 2.35887 22.112 2.93722 23.7421 4.07001L21.9846 5.82751C21.824 5.98758 21.7148 6.19187 21.6709 6.41428C21.627 6.6367 21.6503 6.86716 21.7379 7.07626C21.8251 7.28767 21.9724 7.46894 22.1614 7.59769C22.3504 7.72645 22.573 7.79707 22.8017 7.80084H28.1975C28.4933 7.78504 28.7718 7.65628 28.9755 7.44113C29.1792 7.22598 29.2925 6.94085 29.2921 6.64459V1.24875C29.2999 1.02556 29.2429 0.804868 29.128 0.613359C29.0131 0.42185 28.8452 0.267718 28.6446 0.169587Z" fill="white"/>
<path d="M9.62 20.4271C8.91078 20.1804 8.16627 20.0502 7.41542 20.0417C5.79042 20.1137 4.22212 20.6602 2.90427 21.6137C1.58642 22.5671 0.576749 23.8857 0 25.4067H7.29209C7.65765 23.5842 8.45606 21.8763 9.62 20.4271Z" fill="white"/>
<path d="M3.06836 14.1987C3.06836 15.315 3.51178 16.3855 4.30107 17.1748C5.09037 17.9641 6.16088 18.4075 7.27711 18.4075C8.39334 18.4075 9.46385 17.9641 10.2531 17.1748C11.0424 16.3855 11.4859 15.315 11.4859 14.1987C11.4859 13.0825 11.0424 12.012 10.2531 11.2227C9.46385 10.4334 8.39334 9.98999 7.27711 9.98999C6.16088 9.98999 5.09037 10.4334 4.30107 11.2227C3.51178 12.012 3.06836 13.0825 3.06836 14.1987Z" fill="white"/>
<path d="M29.8468 25.4221H37.0002C36.4241 23.8994 35.4151 22.5786 34.0974 21.6225C32.7797 20.6664 31.211 20.1169 29.5847 20.0417C28.8682 20.0401 28.1558 20.1493 27.4727 20.3654C28.6644 21.8323 29.4794 23.5682 29.8468 25.4221Z" fill="white"/>
<path d="M25.376 14.1987C25.376 14.7514 25.4848 15.2987 25.6963 15.8094C25.9079 16.32 26.2179 16.784 26.6087 17.1748C26.9995 17.5656 27.4635 17.8756 27.9741 18.0871C28.4847 18.2986 29.032 18.4075 29.5847 18.4075C30.1374 18.4075 30.6847 18.2986 31.1953 18.0871C31.706 17.8756 32.1699 17.5656 32.5608 17.1748C32.9516 16.784 33.2616 16.32 33.4731 15.8094C33.6846 15.2987 33.7935 14.7514 33.7935 14.1987C33.7935 13.646 33.6846 13.0988 33.4731 12.5881C33.2616 12.0775 32.9516 11.6135 32.5608 11.2227C32.1699 10.8319 31.706 10.5219 31.1953 10.3104C30.6847 10.0989 30.1374 9.98999 29.5847 9.98999C29.032 9.98999 28.4847 10.0989 27.9741 10.3104C27.4635 10.5219 26.9995 10.8319 26.6087 11.2227C26.2179 11.6135 25.9079 12.0775 25.6963 12.5881C25.4848 13.0988 25.376 13.646 25.376 14.1987Z" fill="white"/>
<path d="M18.5 18.4075C16.6705 18.4075 14.8821 18.95 13.361 19.9664C11.8398 20.9828 10.6542 22.4275 9.95412 24.1177C9.25401 25.8079 9.07083 27.6678 9.42774 29.4621C9.78465 31.2564 10.6656 32.9046 11.9593 34.1982C13.2529 35.4919 14.9011 36.3729 16.6954 36.7298C18.4897 37.0867 20.3496 36.9035 22.0398 36.2034C23.73 35.5033 25.1747 34.3177 26.1911 32.7965C27.2075 31.2754 27.75 29.487 27.75 27.6575C27.75 25.2042 26.7755 22.8515 25.0407 21.1168C23.306 19.3821 20.9533 18.4075 18.5 18.4075ZM19.6563 33.4233C19.6563 33.73 19.5344 34.0241 19.3176 34.2409C19.1008 34.4578 18.8067 34.5796 18.5 34.5796C18.1933 34.5796 17.8993 34.4578 17.6824 34.2409C17.4656 34.0241 17.3438 33.73 17.3438 33.4233H16.1875C15.8808 33.4233 15.5868 33.3015 15.3699 33.0847C15.1531 32.8678 15.0313 32.5737 15.0313 32.2671C15.0313 31.9604 15.1531 31.6663 15.3699 31.4495C15.5868 31.2327 15.8808 31.1108 16.1875 31.1108H19.2708C19.5121 31.1108 19.7434 31.015 19.914 30.8444C20.0846 30.6738 20.1804 30.4425 20.1804 30.2013C20.1792 30.0195 20.1244 29.8422 20.0229 29.6914C19.9215 29.5406 19.7779 29.423 19.61 29.3533L16.4188 28.0892C15.7752 27.8042 15.242 27.3172 14.9 26.7021C14.558 26.0869 14.4258 25.3771 14.5234 24.6801C14.621 23.983 14.943 23.3368 15.4408 22.8392C15.9386 22.3416 16.585 22.0198 17.2821 21.9225C17.2821 21.7707 17.312 21.6203 17.3701 21.48C17.4282 21.3397 17.5134 21.2123 17.6207 21.1049C17.7281 20.9975 17.8556 20.9124 17.9959 20.8543C18.1361 20.7962 18.2865 20.7663 18.4383 20.7663C18.5902 20.7663 18.7405 20.7962 18.8808 20.8543C19.0211 20.9124 19.1486 20.9975 19.2559 21.1049C19.3633 21.2123 19.4485 21.3397 19.5066 21.48C19.5647 21.6203 19.5946 21.7707 19.5946 21.9225H20.7508C21.0575 21.9225 21.3516 22.0443 21.5684 22.2612C21.7853 22.478 21.9071 22.7721 21.9071 23.0788C21.9071 23.3854 21.7853 23.6795 21.5684 23.8963C21.3516 24.1132 21.0575 24.235 20.7508 24.235H17.6675C17.4263 24.235 17.1949 24.3308 17.0243 24.5014C16.8538 24.672 16.7579 24.9033 16.7579 25.1446C16.755 25.3273 16.8081 25.5065 16.9101 25.6581C17.012 25.8097 17.158 25.9264 17.3283 25.9925L20.5042 27.2721C21.1583 27.5483 21.7028 28.0328 22.0532 28.6504C22.4036 29.2679 22.5401 29.9839 22.4417 30.6871C22.3433 31.3903 22.0153 32.0412 21.5088 32.5388C21.0023 33.0364 20.3456 33.3528 19.6408 33.4388L19.6563 33.4233Z" fill="white"/>
</g>
<defs>
<clipPath id="clip0_3015_689">
<rect width="37" height="37" fill="white"/>
</clipPath>
</defs>
</svg>
