<svg width="38" height="38" viewBox="0 0 38 38" fill="none" xmlns="http://www.w3.org/2000/svg">
<g clip-path="url(#clip0_3015_700)">
<path d="M37.9999 22.1667C37.9991 20.694 37.5419 19.2577 36.6913 18.0555C35.8406 16.8533 34.6384 15.9442 33.2499 15.4533V14.25C33.2499 10.4707 31.7486 6.84612 29.0762 4.17373C26.4038 1.50133 22.7793 0 18.9999 0C15.2206 0 11.596 1.50133 8.92365 4.17373C6.25126 6.84612 4.74993 10.4707 4.74993 14.25V15.4533C3.36366 15.9462 2.16396 16.8561 1.31557 18.0582C0.467185 19.2602 0.0117188 20.6954 0.0117188 22.1667C0.0117188 23.6379 0.467185 25.0731 1.31557 26.2752C2.16396 27.4772 3.36366 28.3871 4.74993 28.88C5.1087 29.0047 5.49166 29.0439 5.86827 28.9944C6.24487 28.945 6.60471 28.8082 6.91909 28.595C7.22649 28.3714 7.47696 28.0786 7.65025 27.7403C7.82354 27.402 7.91478 27.0276 7.91659 26.6475V14.25C7.91659 11.3105 9.0843 8.49143 11.1628 6.4129C13.2414 4.33437 16.0604 3.16667 18.9999 3.16667C21.9394 3.16667 24.7585 4.33437 26.837 6.4129C28.9156 8.49143 30.0833 11.3105 30.0833 14.25V26.6475C30.0863 26.977 30.1583 27.3022 30.2946 27.6022C30.431 27.9022 30.6287 28.1702 30.8749 28.3892V29.2917C30.8749 31.635 28.8324 32.4583 26.9166 32.4583H24.0983C23.8199 31.9762 23.4194 31.5761 22.9371 31.2981C22.4548 31.0201 21.9077 30.8742 21.3511 30.8751C20.7944 30.8759 20.2478 31.0235 19.7663 31.3029C19.2849 31.5823 18.8856 31.9837 18.6087 32.4667C18.3318 32.9496 18.1871 33.497 18.1892 34.0537C18.1913 34.6103 18.3401 35.1566 18.6206 35.6374C18.9012 36.1183 19.3035 36.5166 19.787 36.7924C20.2706 37.0682 20.8183 37.2117 21.3749 37.2083C21.9276 37.205 22.4697 37.0571 22.9474 36.7793C23.4252 36.5016 23.822 36.1036 24.0983 35.625H26.9166C31.1124 35.625 34.0416 33.0283 34.0416 29.2917V28.5C35.2228 27.914 36.2182 27.0117 36.9171 25.8935C37.6159 24.7754 37.9908 23.4852 37.9999 22.1667Z" fill="white"/>
<path d="M17.0205 26.5209C17.0205 27.0458 17.229 27.5492 17.6002 27.9203C17.9714 28.2915 18.4748 28.5 18.9997 28.5C19.5246 28.5 20.028 28.2915 20.3992 27.9203C20.7703 27.5492 20.9788 27.0458 20.9788 26.5209C20.9788 25.9959 20.7703 25.4925 20.3992 25.1214C20.028 24.7502 19.5246 24.5417 18.9997 24.5417C18.4748 24.5417 17.9714 24.7502 17.6002 25.1214C17.229 25.4925 17.0205 25.9959 17.0205 26.5209Z" fill="white"/>
<path d="M15.0417 16.625C15.5666 16.625 16.07 16.4165 16.4411 16.0453C16.8123 15.6742 17.0208 15.1707 17.0208 14.6458C17.0221 14.2893 17.1196 13.9397 17.3031 13.6341C17.4866 13.3284 17.7493 13.0779 18.0634 12.9092C18.3774 12.7405 18.7313 12.6598 19.0875 12.6755C19.4436 12.6913 19.7889 12.8029 20.0869 12.9987C20.3849 13.1945 20.6244 13.4672 20.7802 13.7879C20.936 14.1086 21.0023 14.4654 20.972 14.8206C20.9418 15.1759 20.8161 15.5163 20.6084 15.8061C20.4006 16.0958 20.1184 16.3241 19.7917 16.4667C18.9681 16.8246 18.2671 17.4155 17.7748 18.1665C17.2825 18.9176 17.0205 19.7962 17.0208 20.6942V21.5808C17.0208 22.1057 17.2294 22.6091 17.6005 22.9803C17.9717 23.3515 18.4751 23.56 19 23.56C19.5249 23.56 20.0283 23.3515 20.3995 22.9803C20.7706 22.6091 20.9792 22.1057 20.9792 21.5808V20.6942C20.9804 20.5665 21.0184 20.4418 21.0886 20.3351C21.1588 20.2284 21.2582 20.1442 21.375 20.0925C22.3559 19.6644 23.2029 18.9791 23.8263 18.1092C24.4497 17.2392 24.8263 16.2169 24.9164 15.1504C25.0065 14.084 24.8067 13.013 24.338 12.0508C23.8694 11.0886 23.1493 10.2709 22.2541 9.68436C21.3589 9.09778 20.3218 8.76409 19.2525 8.71857C18.1832 8.67305 17.1215 8.91741 16.1797 9.42578C15.2379 9.93416 14.451 10.6877 13.9022 11.6065C13.3535 12.5254 13.0634 13.5756 13.0625 14.6458C13.0625 15.1707 13.271 15.6742 13.6422 16.0453C14.0134 16.4165 14.5168 16.625 15.0417 16.625Z" fill="white"/>
</g>
<defs>
<clipPath id="clip0_3015_700">
<rect width="38" height="38" fill="white"/>
</clipPath>
</defs>
</svg>
