<svg width="24" height="28" viewBox="0 0 24 28" fill="none" xmlns="http://www.w3.org/2000/svg">
<path d="M6.08683 17.257L11.4525 20.3539V14.1558L6.08255 11.059V17.257H6.08683ZM3.77444 18.589L11.4525 23.0179V27.3749L0 20.7671V7.54716L3.77444 9.7261V18.589ZM12 7.00905L6.6352 10.1094L12 13.2062L17.3648 10.1094L12 7.01248V7.00905ZM12 4.34847L18.4564 8.08783L22.2308 5.90889L12 0L0.562914 6.60355L4.33649 8.77736L12 4.34847ZM20.2204 18.589V14.0848L17.9132 15.4168V17.257L12.5475 20.3582V14.1601L24 7.55229V20.7679L12.5475 27.3801V23.0273L20.2204 18.589Z" fill="white"/>
</svg>
