<svg width="37" height="37" viewBox="0 0 37 37" fill="none" xmlns="http://www.w3.org/2000/svg">
<g clip-path="url(#clip0_3015_705)">
<path d="M34.8165 0.370453H11.0791L25.3727 5.13497C27.2233 5.75226 28.4713 7.48447 28.471 9.43529V29.3781H34.8165C35.8176 29.378 36.6295 28.5663 36.6295 27.5651V2.18345C36.6295 1.18214 35.8176 0.370453 34.8165 0.370453Z" fill="white"/>
<path d="M24.5118 7.71482L2.756 0.462972C1.58202 0.0718511 0.369963 0.945976 0.370117 2.18347V27.5652C0.369963 28.3459 0.869617 29.039 1.61023 29.2857L23.3659 36.5375C23.5508 36.5986 23.7442 36.6299 23.939 36.63C24.9401 36.63 25.7518 35.8183 25.7518 34.817V9.43532C25.7521 8.65462 25.2525 7.96148 24.5118 7.71482ZM16.687 23.9392C13.8958 23.9392 12.1512 20.9175 13.5467 18.5002C14.9424 16.083 18.4315 16.083 19.8272 18.5002C20.1454 19.0515 20.313 19.6768 20.313 20.3132C20.313 22.3158 18.6896 23.9392 16.687 23.9392Z" fill="white"/>
</g>
<defs>
<clipPath id="clip0_3015_705">
<rect width="37" height="37" fill="white"/>
</clipPath>
</defs>
</svg>
